PathFileType	4	(X/Y/Z)	RBDS001\RBDS001runT45.trc
DataRate	CameraRate	NumFrames	NumMarkers	Units	OrigDataRate	OrigDataStartFrame	OrigNumFrames
150.000000	150.000000	4	33	mm	150.000000	3375	4500
Frame#	Time	L.ASIS			L.Heel.Bottom			L.Heel.Lateral			L.Heel.Top			L.Iliac.Crest			L.MT1			L.MT5			L.PSIS			L.Shank.Bottom.Lateral			L.Shank.Bottom.Medial			L.Shank.Top.Lateral			L.Shank.Top.Medial			L.Thigh.Bottom.Lateral			L.Thigh.Bottom.Medial			L.Thigh.Top.Lateral			L.Thigh.Top.Medial			R.ASIS			R.ASY			R.Heel.Bottom			R.Heel.Lateral			R.Heel.Top			R.Iliac.Crest			R.MT1			R.MT5			R.PSIS			R.Shank.Bottom.Lateral			R.Shank.Bottom.Medial			R.Shank.Top.Lateral			R.Shank.Top.Medial			R.Thigh.Bottom.Lateral			R.Thigh.Bottom.Medial			R.Thigh.Top.Lateral			R.Thigh.Top.Medial			
		X1	Y1	Z1	X2	Y2	Z2	X3	Y3	Z3	X4	Y4	Z4	X5	Y5	Z5	X6	Y6	Z6	X7	Y7	Z7	X8	Y8	Z8	X9	Y9	Z9	X10	Y10	Z10	X11	Y11	Z11	X12	Y12	Z12	X13	Y13	Z13	X14	Y14	Z14	X15	Y15	Z15	X16	Y16	Z16	X17	Y17	Z17	X18	Y18	Z18	X19	Y19	Z19	X20	Y20	Z20	X21	Y21	Z21	X22	Y22	Z22	X23	Y23	Z23	X24	Y24	Z24	X25	Y25	Z25	X26	Y26	Z26	X27	Y27	Z27	X28	Y28	Z28	X29	Y29	Z29	X30	Y30	Z30	X31	Y31	Z31	X32	Y32	Z32	X33	Y33	Z33	

3376	22.5	2402.116490633028	1038.583066404648	962.9718021754084	2586.846513089645	58.71394138858996	1082.38291691672	2602.88603244952	60.84923967206237	1033.1444926931	2582.73308489768	103.2847121295577	1065.204039789731	2347.320318805072	1108.62625411535	916.6817839765902	2800.339480991023	126.9966452962047	1053.995036976062	2752.637779542488	72.59550332823673	970.6269358898317	2241.840654582117	1082.125852194743	1017.996044777528	2601.234642477569	207.9726714297458	979.8704025371376	2569.995641723092	200.5694725528401	1020.564012366135	2567.192228890775	279.2057463647355	960.7325105741866	2534.283899178948	276.1288857506871	1003.562374647928	2451.318198153888	647.5758318382091	912.5688256995454	2404.057009351255	625.6120646660383	964.3041752582484	2388.02740206199	736.7827202734518	896.3422362979688	2344.57477011335	717.9806201393634	946.2110804402296	2403.61031468107	1013.857796135158	1165.178025175758	1169664908.736987	2154679635.72663	-3402597365.708668	1645.964592687067	541.6646501029852	1081.440688563336	1647.860514058591	504.428003253273	1122.350700793764	1690.026763829215	522.6345888258026	1088.824168018707	2360.932613348677	1099.392088629546	1186.186384947857	1642.100662027893	327.8370761900734	1010.280653519204	1613.515978311496	337.1597449765657	1115.031175404189	2245.335296106038	1082.641635590978	1095.71761898543	1775.314475680829	476.6032005819374	1135.091005468294	1768.51324649752	517.3293196282289	1100.123012110955	1850.58087741183	503.6713008525466	1150.981143420167	1843.360509560817	544.1976517450005	1116.20767592386	2169.006316251775	632.778703196964	1178.531554675947	2123.162671466838	654.8773307664728	1124.574260590213	2195.477177257595	738.6917368185127	1196.593111846657	2150.37514344187	759.3201407222114	1146.693134181853	
3377	22.50666666666667	2401.62201551172	1036.019163977265	962.7734006802251	2578.834835062778	55.78511368885329	1086.530577873117	2594.582857476517	57.16288696358072	1037.13996359898	2575.520924628827	100.1919095602959	1068.910088538026	2345.493635082096	1105.534535489752	917.4945878372488	2792.874160730439	119.7714544334751	1056.855896586545	2743.817623071149	66.68680775895855	973.8780804364084	2241.317259428794	1077.840246911833	1019.914641963147	2595.038225463553	202.6866632420654	982.306767548165	2563.786515749066	195.8135259040285	1023.029572821208	2561.615301965101	273.9937269871415	962.8045318721452	2528.740270654927	271.4786125055376	1005.668764746364	2447.958923798965	643.6000365763495	913.5830126872415	2400.831406537746	622.2902973304657	965.8533539060237	2385.308675129104	733.241394701963	897.5183796781853	2342.038424567153	715.0102555071192	947.7958201104869	2404.555097893807	1010.672112271766	1165.43356587748	1170739740.097458	2156666170.004486	-3405733979.185974	1658.04265256488	559.0203570462744	1081.796695243345	1657.610594799252	521.9494696369566	1122.996060519502	1701.001509090191	537.5911440937908	1089.669620182869	2361.213352358651	1095.711334182607	1187.135384403067	1642.617981870994	345.0110292654992	1012.219837201937	1614.078005049724	356.7360040343221	1116.589973875556	2245.565869853944	1077.970203393675	1097.535932696215	1783.09896927767	487.2511509715137	1136.348143925866	1778.369284253923	527.952015505405	1101.184847804038	1859.640320294229	510.4538034605143	1152.161001038825	1854.430324742281	551.1054148069248	1117.179718443527	2176.209153649782	625.4124625015087	1179.495118143908	2131.232325072461	646.0048012742873	1124.322638226923	2200.049556164517	731.950425099226	1196.905288333768	2155.871461623008	751.1615127327481	1145.815947857124	
3378	22.51333333333334	2400.958270082878	1032.953184197411	962.085912754798	2566.190092803787	52.99630320798802	1090.544221870626	2581.743546969516	54.05799047833893	1041.108864259389	2564.152341185661	97.38068647407927	1073.045559260878	2343.300167377817	1101.749096657654	918.2759672394445	2781.478112528519	110.9457548650725	1060.378381574027	2730.689523074692	60.92754835514788	977.2798801321459	2240.553771478941	1072.917596006555	1022.013791576185	2586.195713113489	197.3872624216878	985.2282826752228	2554.686397174161	191.4380556820954	1025.770747467767	2554.270485924166	269.0192057505252	965.1616553608615	2521.23792550058	267.4763087598711	1007.857686999512	2445.260129241808	639.9778145638003	914.6431450902032	2398.331302239366	619.0707723563795	967.3258977684972	2382.928629503162	729.803856356818	898.7652092953902	2339.907541001667	711.9288792212176	949.3681674700509	2405.436942559264	1006.898364103635	1165.376405618911	1171815229.704753	2158653924.925357	-3408872519.685974	1672.166981871841	574.8779479043365	1081.71974441928	1669.42761790876	538.2841937176527	1123.345347389472	1713.979474030374	551.2328739099876	1090.206778781668	2361.765599480547	1091.360974145962	1188.027138429187	1645.644494629138	360.8114522165924	1014.853229662967	1617.087950047733	375.3779581549841	1118.697192607928	2245.788636390618	1072.684020392981	1099.482931180623	1792.676781854535	496.9479788583124	1137.725332298218	1790.024338752591	537.4092658379656	1102.230007444653	1870.232516276918	516.351223764409	1153.457876122835	1867.03818287238	556.889637348475	1118.100095100459	2183.683061842512	617.4907495928996	1180.629494932175	2139.586060874118	636.4144839633981	1124.229369264054	2204.650031077708	724.6748591507898	1197.209356874924	2161.431297756528	742.3032327410519	1144.871500668956	
3379	22.52	2400.125810263147	1029.389962509979	960.9601767572027	2549.373940801695	50.27995454532571	1094.444896654928	2564.828691032555	51.54757318527204	1045.08600354609	2548.984171812176	94.78081897378081	1077.674937746234	2340.882605348826	1097.318148910754	919.005613125295	2766.480854967561	101.0143065026186	1064.555070418907	2713.695541353388	55.66217319308416	980.8494765723926	2239.542621588626	1067.480446792781	1024.20485436133	2574.943251063818	192.1110968881142	988.7189724222715	2542.930183914854	187.4472130253239	1028.847064695142	2545.310895620323	264.2576415286301	967.8586927852649	2511.921876671331	264.0619484980197	1010.156941011143	2443.008888807592	636.5375254346405	915.7480508158343	2396.370942780019	615.8798186103508	968.7938136634416	2380.736620387127	726.3557889477232	900.059504568635	2338.040427856514	708.7026018976218	950.9591465954632	2406.193690833999	1002.603460734154	1165.014542812459	1172891377.760363	2160642900.864149	-3412012987.800434	1688.008579959299	589.0819873795306	1081.344237104676	1683.102329685287	553.2545368874049	1123.519123371365	1728.680536862306	563.4666880527669	1090.506020479633	2362.515365093819	1086.432185207743	1188.835040029326	1651.123053487154	375.105310319497	1018.127898486885	1622.609548026439	392.8383441198097	1121.358387850997	2245.932798463452	1066.899691728407	1101.478259660231	1803.963930186988	505.6247385209433	1139.23306669694	1803.363898299285	545.6721387512068	1103.29978454233	1882.300288917728	521.3152401749994	1154.871190769658	1881.10037458577	561.5375700292483	1119.001833047426	2191.534691335693	609.041040549584	1181.955578643349	2148.240545684647	626.1666779054386	1124.403997122896	2209.402985772447	716.8719136669229	1197.577967264548	2167.061589081436	732.7887110073057	1144.038026848433	
